# xmcd
#
# Track frame offsets:
#	384
#	15902
#	30555
#	46554
#	67088
#	76745
#	106771
#	123233
#	134894
#	149439
#	160926
#	176488
#	190086
#	197240
#
# Disc length: 2767 seconds
#
# Revision: 1
# Processed by: cddbd v1.5.2PL0 Copyright (c) Steve Scherf et al.
# Submitted via: audiograbber 1.83.01
#
DISCID=b80aca0e
DTITLE=Martin Gallop - Most Beautiful Song
DYEAR=2013
DGENRE=Blues
TTITLE0=Something To Cry About
TTITLE1=Missing Trains
TTITLE2=Maple Leaves And Moonshine
TTITLE3=The Little Blue Store
TTITLE4=Acting Like Jack
TTITLE5=Annabelle
TTITLE6=Stuck On You (Revisited)
TTITLE7=Happiness
TTITLE8=Thinking Big
TTITLE9=Silver Lady
TTITLE10=Sleepless Night
TTITLE11=Most Beautiful Song
TTITLE12=Acting Like Jack (Reprise)
TTITLE13=First Impression
EXTD=
EXTT0=
EXTT1=
EXTT2=
EXTT3=
EXTT4=
EXTT5=
EXTT6=
EXTT7=
EXTT8=
EXTT9=
EXTT10=
EXTT11=
EXTT12=
EXTT13=
PLAYORDER=
